Coordinates
version=1
nRows=37
nColumns=19
inDegrees=yes

Units are S.I. units (second, meters, Newtons, ...)
If the header above contains a line with 'inDegrees', this indicates whether rotational values are in degrees (yes) or radians (no).

endheader
time	pelvis_tilt	pelvis_list	pelvis_rotation	pelvis_tx	pelvis_ty	pelvis_tz	hip_flexion_r	hip_adduction_r	hip_rotation_r	knee_angle_r	knee_angle_r_beta	ankle_angle_r	hip_flexion_l	hip_adduction_l	hip_rotation_l	knee_angle_l	knee_angle_l_beta	ankle_angle_l
     17.24666667	     -5.61870824	     12.28325507	      5.90663146	      2.25089565	      1.02851163	      1.02425840	    -13.60264414	    -17.85785929	    -21.60943895	     69.07246789	      1.20554199	    -21.40366916	     25.46031484	     17.40579156	    -14.65617319	     15.53633554	      0.27116021	      1.68619484
     17.25333333	     -5.64699329	     12.79738615	      6.64140758	      2.24969395	      1.02253393	      1.02398523	    -12.57920419	    -18.68105459	    -21.57253789	     72.46986324	      1.26483772	    -21.08478404	     26.47758866	     17.57128437	    -15.54667210	     19.89799777	      0.34728558	      2.60849071
     17.26000000	     -5.69538760	     13.25997747	      7.37180827	      2.24847502	      1.01646300	      1.02385906	    -11.44532052	    -19.44553343	    -21.41889657	     75.82884507	      1.32346301	    -20.63118936	     27.35509620	     17.70246845	    -16.07739887	     24.15030060	      0.42150226	      3.74550430
     17.26666667	     -5.75491098	     13.67648159	      8.03022969	      2.24722464	      1.01050048	      1.02381782	    -10.17926597	    -20.17592717	    -21.07836756	     79.10473459	      1.38063807	    -20.08564702	     28.03170155	     17.85286151	    -16.21100794	     28.09083253	      0.49027752	      5.16137759
     17.27333333	     -5.16728875	     14.38005071	      8.55589641	      2.24607904	      1.00557469	      1.02388105	     -9.67773986	    -21.16815469	    -20.83985627	     82.14979951	      1.43378448	    -19.47278310	     27.66645752	     18.35814468	    -15.96313704	     31.45789781	      0.54904389	      6.85892938
     17.28000000	     -5.79761082	     14.29804989	      9.16920356	      2.24435015	      0.99967647	      1.02374850	     -7.30450623	    -21.39176730	    -19.85678565	     85.31504020	      1.48902835	    -18.76790951	     28.66847991	     18.23692648	    -15.43295629	     34.87007396	      0.60859760	      8.79825551
     17.28666667	     -5.85439983	     14.46845033	      9.59674885	      2.24265934	      0.99497132	      1.02366886	     -5.54246818	    -21.84447664	    -18.88411821	     88.22867980	      1.53988096	    -18.02906654	     28.71230186	     18.41602966	    -14.71930767	     37.63637096	      0.65687859	     10.92921411
     17.29333333	     -5.91575946	     14.53347226	      9.87282357	      2.24084666	      0.99089034	      1.02364599	     -3.55118854	    -22.15782926	    -17.62977720	     90.97362595	      1.58778931	    -17.28082388	     28.55029106	     18.51318814	    -13.94857637	     39.96018067	      0.69743672	     13.14297065
     17.30000000	     -5.43972784	     14.73225617	     10.05809053	      2.23913940	      0.98808450	      1.02353223	     -2.18303914	    -22.54898214	    -16.50011578	     93.39257256	      1.63000789	    -16.42343585	     27.47629178	     18.76241033	    -13.02755137	     41.71070883	      0.72798920	     15.45070126
     17.30666667	     -6.11744905	     14.29072888	      9.98987878	      2.23695159	      0.98464430	      1.02361256	      1.13367025	    -22.25855704	    -14.41022551	     95.85570133	      1.67299760	    -15.68839338	     27.69019188	     18.34163625	    -12.41772931	     43.30087731	      0.75574288	     17.51739897
     17.31333333	     -6.19810296	     13.99267161	      9.78125652	      2.23498632	      0.98258747	      1.02375518	      3.73075900	    -21.98692278	    -12.48399342	     97.93112117	      1.70922050	    -14.86068646	     26.93743096	     18.00985271	    -11.77450086	     44.33079485	      0.77371833	     19.53441199
     17.32000000	     -6.16493779	     13.62397692	      9.36320369	      2.23315705	      0.98135363	      1.02406658	      6.31206194	    -21.53253255	    -10.44024003	     99.71168335	      1.74029718	    -14.01670999	     25.85519741	     17.51736253	    -11.29237203	     44.93753224	      0.78430790	     21.38121373
     17.32666667	     -5.99291940	     13.17504308	      8.79797881	      2.23153558	      0.98095797	      1.02450983	      8.77541972	    -20.84408460	     -8.36789254	    101.16142719	      1.76559998	    -13.10935923	     24.42730035	     16.87307106	    -10.93659442	     45.16631628	      0.78830093	     22.94910213
     17.33333333	     -6.27672366	     12.59181312	      8.20031098	      2.22997343	      0.98064621	      1.02486949	     11.79882304	    -19.99044708	     -6.25555462	    102.39319689	      1.78709842	    -12.23214987	     23.34733792	     16.14791159	    -10.65539178	     45.08025996	      0.78679896	     24.25965623
     17.34000000	     -6.21879645	     11.99175329	      7.52480966	      2.22877689	      0.98137212	      1.02528241	     14.30519664	    -19.01085272	     -4.38297598	    103.22153371	      1.80155562	    -11.23121217	     21.69627040	     15.35708294	    -10.42384959	     44.65135118	      0.77931309	     25.29032934
     17.34666667	     -6.40051061	     11.35129447	      6.77975094	      2.22789476	      0.98240588	      1.02574857	     17.02471557	    -17.92449834	     -2.55233824	    103.77055814	      1.81113791	    -10.24507413	     20.15812410	     14.52739015	    -10.35838094	     43.93302108	      0.76677587	     25.99815332
     17.35333333	     -6.54523590	     10.66922985	      6.10495864	      2.22726821	      0.98401079	      1.02607458	     19.52448888	    -16.80040220	     -1.04818009	    103.98759372	      1.81492589	     -9.15901403	     18.45199443	     13.72144560	    -10.19381521	     42.99879721	      0.75047059	     26.43230580
     17.36000000	     -6.82481807	      9.96735318	      5.41814584	      2.22697502	      0.98607330	      1.02636647	     22.04978794	    -15.61820696	      0.30222888	    103.88905847	      1.81320613	     -8.12155814	     16.76956184	     12.91017458	    -10.13350602	     41.82597583	      0.73000099	     26.41505134
     17.36666667	     -7.19449635	      9.20215057	      5.29982404	      2.22713097	      0.98870123	      1.02585527	     24.25397648	    -14.69554780	      0.78908650	    103.39402511	      1.80456617	     -6.98241529	     15.03588966	     12.27752748	     -9.38471602	     40.48301892	      0.70656197	     26.06742834
     17.37333333	     -7.45055516	      8.45872662	      4.25126570	      2.22747553	      0.99167066	      1.02661807	     26.59781370	    -13.24890467	      2.09712938	    102.73195488	      1.79301086	     -5.92204493	     13.20481465	     11.30447312	     -9.92545429	     38.98887956	      0.68048432	     25.40521931
     17.38000000	     -7.86999972	      7.65572086	      3.76712761	      2.22825590	      0.99507300	      1.02662815	     28.71930593	    -12.08607717	      2.59014779	    101.70068434	      1.77501179	     -4.85133069	     11.45402110	     10.48098052	     -9.84812537	     37.39678621	      0.65269705	     24.29657726
     17.38666667	     -8.49883564	      6.80110135	      3.60502900	      2.22926996	      0.99866673	      1.02622608	     30.82594556	    -11.07998099	      2.60314078	    100.38382887	      1.75202833	     -3.75399803	      9.92585237	      9.70919924	     -9.40955260	     35.78906110	      0.62463695	     22.82802329
     17.39333333	     -8.44702602	      5.87867650	      3.00651658	      2.23097208	      1.00351343	      1.02635679	     32.06568262	     -9.79735557	      2.69265918	     98.70503717	      1.72272789	     -2.77683783	      7.57860342	      8.67120642	     -9.69753283	     33.93884106	      0.59234452	     20.89983571
     17.40000000	     -8.72695515	      4.85692065	      2.74915222	      2.23281384	      1.00828628	      1.02609172	     33.44917365	     -8.64334851	      2.32541062	     96.77836270	      1.68910107	     -1.86473901	      5.66351723	      7.61120997	     -9.66589919	     32.18671445	      0.56176414	     18.57992663
     17.40666667	     -9.37874729	      3.88703930	      2.68006194	      2.23472696	      1.01284178	      1.02568433	     35.10086570	     -7.67122048	      1.75634752	     94.66789055	      1.65226639	     -1.06573288	      4.24493308	      6.62484568	     -9.53186545	     30.52878735	      0.53282786	     15.84094910
     17.41333333	     -8.89046815	      2.70452141	      2.55779169	      2.23742552	      1.01913278	      1.02516554	     35.20454117	     -6.57855622	      0.79143907	     92.12299601	      1.60784960	     -0.22211724	      1.50117006	      5.33630547	     -9.57902284	     28.60036625	      0.49917056	     12.74412719
     17.42000000	     -9.05129990	      1.56214764	      2.53439768	      2.23997721	      1.02465299	      1.02468962	     35.96587061	     -5.56087800	     -0.20057197	     89.46904092	      1.56152934	      0.41435988	     -0.35130561	      4.08594314	     -9.67531377	     26.91384669	      0.46973524	      9.31336987
     17.42666667	     -8.97679962	      0.43024940	      2.65251115	      2.24279720	      1.03055873	      1.02399214	     36.28742848	     -4.71078830	     -1.45197533	     86.58044689	      1.51111387	      0.95297783	     -2.41067572	      2.83189546	     -9.70838093	     25.18634558	      0.43958466	      5.58877119
     17.43333333	     -8.91934791	     -0.69309407	      2.81547135	      2.24571882	      1.03639534	      1.02331964	     36.51187667	     -3.90238716	     -2.80015641	     83.51517970	      1.45761486	      1.37944806	     -4.33554590	      1.55084820	     -9.83208859	     23.56037487	      0.41120611	      1.66780708
     17.44000000	     -8.80204355	     -1.82520173	      3.01317990	      2.24870541	      1.04220081	      1.02265756	     36.55370077	     -3.11405852	     -4.25874269	     80.27213515	      1.40101306	      1.70006581	     -6.19383493	      0.21380104	    -10.12165902	     22.06815068	      0.38516189	     -2.34794903
     17.44666667	     -8.62052464	     -2.88216027	      3.27131325	      2.25171301	      1.04789504	      1.02199872	     36.41842846	     -2.44268453	     -5.81725362	     76.88126885	      1.34183127	      1.96842893	     -7.99239599	     -1.08720577	    -10.50303969	     20.71592248	      0.36156105	     -6.41844708
     17.45333333	     -8.27655765	     -3.83642787	      3.61020260	      2.25472686	      1.05352497	      1.02130000	     36.00452987	     -1.91425731	     -7.48955308	     73.37121378	      1.28056926	      2.14063598	     -9.84704421	     -2.32837344	    -10.99034509	     19.49862266	      0.34031517	    -10.42105234
     17.46000000	     -7.91272736	     -4.75362330	      3.99190806	      2.25775553	      1.05885442	      1.02061985	     35.47110175	     -1.42228291	     -9.26692238	     69.73408403	      1.21708937	      2.22036104	    -11.56744999	     -3.59598236	    -11.70851102	     18.52180333	      0.32326645	    -14.26778034
     17.46666667	     -7.50737002	     -5.55579905	      4.37335339	      2.26064857	      1.06384512	      1.02010720	     34.83257437	     -0.98806852	    -11.05811593	     66.02541658	      1.15236091	      2.23870118	    -13.15841485	     -4.81339895	    -12.70444164	     17.85703046	      0.31166398	    -17.82713638
     17.47333333	     -7.08616486	     -6.27671659	      4.73279058	      2.26339218	      1.06840045	      1.01977974	     34.12789783	     -0.55568684	    -12.85662592	     62.25175101	      1.08649802	      2.16055167	    -14.58746107	     -6.02479421	    -14.04281764	     17.56681131	      0.30659870	    -20.94986718
     17.48000000	     -6.97139934	     -6.92814908	      4.92643702	      2.26596124	      1.07207518	      1.01989668	     33.74993364	     -0.03477068	    -14.49104345	     58.45856951	      1.02029451	      1.95979897	    -15.49873233	     -7.22152073	    -15.84225090	     17.77524244	      0.31023651	    -23.46763100
     17.48666667	     -6.34221912	     -7.40301877	      5.29155172	      2.26836515	      1.07585654	      1.02000605	     32.75208909	      0.35059200	    -16.25459691	     54.64497164	      0.95373467	      1.79948582	    -16.87182882	     -8.34418635	    -17.58133788	     18.15621648	      0.31688576	    -25.61617361
